<?xml version="1.0" standalone="no"?>
<!DOCTYPE svg PUBLIC "-//W3C//DTD SVG 20010904//EN"
 "http://www.w3.org/TR/2001/REC-SVG-20010904/DTD/svg10.dtd">
<svg version="1.0" xmlns="http://www.w3.org/2000/svg"
 width="512.000000pt" height="512.000000pt" viewBox="0 0 512.000000 512.000000"
 preserveAspectRatio="xMidYMid meet">

<g transform="translate(0.000000,512.000000) scale(0.100000,-0.100000)"
fill="#000000" stroke="none">
<path d="M3830 4785 c-90 -20 -188 -59 -262 -107 -41 -26 -180 -157 -398 -374
l-336 -335 -44 17 c-25 9 -86 18 -136 21 -75 5 -104 2 -161 -15 -136 -42 -238
-129 -299 -257 -79 -164 -61 -352 46 -493 22 -29 40 -56 40 -60 0 -3 -321
-329 -714 -722 -569 -569 -719 -726 -740 -767 -32 -64 -56 -153 -56 -207 0
-38 -7 -47 -190 -231 -169 -171 -193 -199 -224 -266 -86 -182 -61 -380 66
-525 62 -70 255 -144 377 -144 71 0 160 23 225 58 33 17 120 95 242 214 183
180 192 188 230 188 55 0 148 25 208 57 38 20 232 207 773 746 l721 720 44
-35 c219 -178 525 -130 689 109 73 106 97 265 61 398 l-19 70 327 330 c366
368 404 417 460 581 32 93 34 107 34 239 1 120 -2 151 -22 215 -46 146 -109
248 -215 353 -195 190 -475 275 -727 222z m263 -320 c93 -19 175 -66 245 -139
71 -74 108 -143 129 -240 26 -123 0 -252 -71 -358 -19 -29 -170 -188 -336
-353 l-300 -300 -342 343 -343 342 305 305 c305 306 357 350 440 380 101 36
172 42 273 20z m-1377 -804 c68 -50 952 -945 963 -974 51 -135 -71 -257 -206
-206 -36 13 -968 943 -988 985 -8 18 -15 52 -15 77 0 120 147 191 246 118z
m29 -921 l230 -230 -295 -295 -295 -295 -465 0 -465 0 525 525 c289 289 527
525 530 525 3 0 109 -104 235 -230z m-940 -1399 c-261 -260 -276 -270 -360
-251 -26 6 -56 5 -85 -2 -40 -10 -70 -35 -260 -223 -118 -117 -225 -218 -237
-224 -30 -15 -99 -14 -131 3 -65 34 -97 96 -87 166 7 42 20 58 225 265 121
121 224 234 230 250 7 19 9 56 5 101 -5 54 -3 80 10 112 l17 42 457 0 456 0
-240 -239z"/>
</g>
</svg>
